<svg id="Layer_1" data-name="Layer 1" xmlns="http://www.w3.org/2000/svg" viewBox="0 0 144.03 135.02"><defs><style>.cls-1{fill:#fff;}</style></defs><title>university_of_helsinki-logo</title><path id="path2922" class="cls-1" d="M144,89.66c-5.2-11.43-16.87-13.1-24.18-17.86-3.49-2.28-4.91-6.86-5.46-10.69-3.45.36-9.18.41-11.91-6.55C100.32,49.09,101.22,40,94,32.34a26.92,26.92,0,0,0-22-8.77c9.06,6.06,5.49,15.19-1.09,15.19-9.16,0-11.72-11-25.12-11a13.93,13.93,0,0,0-7.46,2.08c7.51.94,9.31,7.1,11.65,12.67,1.87,4.43,5.2,7,10.08,8.36A12.82,12.82,0,0,1,54.36,52c-5.92,0-10-3.12-14.28-7.48C36.35,40.64,32.18,37,25.21,37a13.74,13.74,0,0,0-7,1.7c3.84.6,9.49,2.88,9.49,6.94,0,3.46-3.83,4.79-7,1.47a19.55,19.55,0,0,0-14-6.48c-2.78,0-5.55.88-6.73,2,6.66.77,10.6,5,14.72,14.57,2.33,5.38,5.64,10.47,14,10.56,3.8,0,9.19-1.76,12.35,1.28,3,2.88,2,6.65,3.36,9.7,1.72,3.84,5.3,5.82,12.28,6.19-5.8,4.85-19.65,1.94-24.37-3,.63,12.41,10.41,23.53,29.83,18.3,3.38-.91,5.79-.39,7.09,3,1.78,4.69,6,5.47,10,5,9.13-1.13,14.55.71,19.8,7,1.15-10.39-6.28-16.49-10.94-19.41-4.44-2.78-4.88-5.67-4.93-7.9,3.21,3.67,7.4,5.23,11.76,5.85,7.54,1.06,12.94,3.16,15.79,7.2.84-11.42-11.15-14-12.62-18.8,3.77,2.46,6.55,3.35,10.48,3,5.24-.39,11.61-4.51,16.31,3.55,6-3.9,13.86-2.51,19.14.9M78.76,74.26H65.26V60.76h13.5ZM65.26,13.5h13.5V0H65.26Zm13.5,108H65.26V135h13.5Z"/></svg>